<?xml version="1.0" encoding="UTF-8" standalone="no"?>
<!-- Created with Inkscape (http://www.inkscape.org/) -->

<svg
   width="210mm"
   height="297mm"
   viewBox="0 0 210 297"
   version="1.1"
   id="svg1"
   sodipodi:docname="step by step.svg"
   xml:space="preserve"
   inkscape:version="1.3 (0e150ed6c4, 2023-07-21)"
   xmlns:inkscape="http://www.inkscape.org/namespaces/inkscape"
   xmlns:sodipodi="http://sodipodi.sourceforge.net/DTD/sodipodi-0.dtd"
   xmlns="http://www.w3.org/2000/svg"
   xmlns:svg="http://www.w3.org/2000/svg"><sodipodi:namedview
     id="namedview1"
     pagecolor="#ffffff"
     bordercolor="#000000"
     borderopacity="0.25"
     inkscape:showpageshadow="2"
     inkscape:pageopacity="0.0"
     inkscape:pagecheckerboard="0"
     inkscape:deskcolor="#d1d1d1"
     inkscape:document-units="mm"
     inkscape:zoom="1.3329281"
     inkscape:cx="378.86516"
     inkscape:cy="214.94033"
     inkscape:window-width="1366"
     inkscape:window-height="705"
     inkscape:window-x="-8"
     inkscape:window-y="-8"
     inkscape:window-maximized="1"
     inkscape:current-layer="layer1"
     showgrid="false"><inkscape:grid
       id="grid27"
       units="px"
       originx="0"
       originy="0"
       spacingx="13.229167"
       spacingy="13.229167"
       empcolor="#0099e5"
       empopacity="0.30196078"
       color="#0099e5"
       opacity="0.14901961"
       empspacing="5"
       dotted="false"
       gridanglex="30"
       gridanglez="30"
       visible="false" /></sodipodi:namedview><defs
     id="defs1"><inkscape:path-effect
       effect="fillet_chamfer"
       id="path-effect16-9-9-2"
       is_visible="true"
       lpeversion="1"
       nodesatellites_param="F,0,1,1,0,9.1700458,0,1 @ F,0,0,1,0,9.1700458,0,1 @ F,0,0,1,0,0,0,1 @ F,0,0,1,0,0,0,1 @ F,0,0,1,0,0,0,1 @ F,0,0,1,0,0,0,1 @ F,0,1,1,0,9.1700458,0,1 @ F,0,0,1,0,0,0,1 @ F,0,1,1,0,9.1700458,0,1"
       radius="0"
       unit="px"
       method="auto"
       mode="F"
       chamfer_steps="1"
       flexible="false"
       use_knot_distance="true"
       apply_no_radius="true"
       apply_with_radius="true"
       only_selected="false"
       hide_knots="false" /><inkscape:path-effect
       effect="fillet_chamfer"
       id="path-effect21-3-4-9"
       is_visible="true"
       lpeversion="1"
       nodesatellites_param="F,0,1,1,0,0.37097427,0,1 @ F,0,0,1,0,0,0,1 @ F,0,1,1,0,0.37097427,0,1 @ F,0,0,1,0,0,0,1 @ F,0,0,1,0,0.37097427,0,1 @ F,0,0,1,0,0,0,1 @ F,0,1,1,0,0.37097427,0,1"
       radius="0"
       unit="px"
       method="auto"
       mode="F"
       chamfer_steps="1"
       flexible="false"
       use_knot_distance="true"
       apply_no_radius="true"
       apply_with_radius="true"
       only_selected="false"
       hide_knots="false" /><inkscape:path-effect
       effect="fillet_chamfer"
       id="path-effect38"
       is_visible="true"
       lpeversion="1"
       nodesatellites_param="F,0,1,1,0,7.8287133,0,1 @ F,0,1,1,0,7.8287133,0,1 @ F,0,0,1,0,7.8287133,0,1 @ F,0,0,1,0,0,0,1 @ F,0,0,1,0,0,0,1 @ F,0,0,1,0,0,0,1"
       radius="0"
       unit="px"
       method="auto"
       mode="F"
       chamfer_steps="1"
       flexible="false"
       use_knot_distance="true"
       apply_no_radius="true"
       apply_with_radius="true"
       only_selected="false"
       hide_knots="false" /><inkscape:path-effect
       effect="fillet_chamfer"
       id="path-effect35"
       is_visible="true"
       lpeversion="1"
       nodesatellites_param="F,0,0,1,0,8.3373336,0,1 @ F,0,0,1,0,9.263705,0,1 @ F,0,0,1,0,0,0,1 @ F,0,0,1,0,0,0,1"
       radius="0"
       unit="px"
       method="auto"
       mode="F"
       chamfer_steps="1"
       flexible="false"
       use_knot_distance="true"
       apply_no_radius="true"
       apply_with_radius="true"
       only_selected="false"
       hide_knots="false" /></defs><g
     inkscape:label="Layer 1"
     inkscape:groupmode="layer"
     id="layer1"><path
       sodipodi:type="star"
       style="fill:#b3b3b3;fill-opacity:1;fill-rule:evenodd;stroke:#21466a;stroke-width:0.0781527;stroke-dasharray:none;stroke-opacity:1;paint-order:fill markers stroke"
       id="path24-9-1-4-0"
       inkscape:flatsided="false"
       sodipodi:sides="4"
       sodipodi:cx="142.45657"
       sodipodi:cy="140.95222"
       sodipodi:r1="4.0548406"
       sodipodi:r2="2.0809515"
       sodipodi:arg1="0.87273255"
       sodipodi:arg2="1.6581307"
       inkscape:rounded="0"
       inkscape:randomized="0"
       d="m 145.06276,144.05859 -2.78769,-1.03334 -2.92486,0.53317 1.03334,-2.7877 -0.53317,-2.92486 2.7877,1.03334 2.92486,-0.53317 -1.03335,2.7877 z"
       transform="matrix(1.2793353,0,0,1.2797565,-29.554284,43.365733)" /><path
       sodipodi:type="star"
       style="fill:#b3b3b3;fill-opacity:1;fill-rule:evenodd;stroke:#21466a;stroke-width:0.0781527;stroke-dasharray:none;stroke-opacity:1;paint-order:fill markers stroke"
       id="path22-0-3-9-8"
       inkscape:flatsided="false"
       sodipodi:sides="4"
       sodipodi:cx="22.259077"
       sodipodi:cy="85.037659"
       sodipodi:r1="6.2252283"
       sodipodi:r2="3.194798"
       sodipodi:arg1="1.7220867"
       sodipodi:arg2="2.5074849"
       inkscape:rounded="0"
       inkscape:randomized="0"
       d="m 21.320849,91.191779 -1.635503,-4.261334 -3.580389,-2.831015 4.261333,-1.635503 2.831015,-3.580388 1.635503,4.261333 3.580389,2.831015 -4.261333,1.635503 z"
       transform="matrix(1.2793353,0,0,1.2797565,-15.691132,50.577765)" /><ellipse
       style="fill:#ffc510;fill-opacity:1;fill-rule:evenodd;stroke:#f0dc5c;stroke-width:0;stroke-dasharray:none;stroke-opacity:1;paint-order:fill markers stroke"
       id="path17-5-3-3"
       cx="122.61268"
       cy="123.20834"
       rx="70.887886"
       ry="70.911209" /><path
       style="fill:none;stroke:#21466a;stroke-width:0.519718;stroke-linecap:butt;stroke-linejoin:miter;stroke-dasharray:none;stroke-opacity:1"
       d="m 48.48775,30.092466 v 74.162904 a 9.1700458,9.1700458 45 0 0 9.170046,9.17005 h 49.359024 9.28799 l 7.32356,12.68478 7.38531,-12.79173 h 20.79188 a 9.1700458,9.1700458 135 0 0 9.17005,-9.17005 V 78.653909 29.553694 a 9.1262301,9.1262301 44.862789 0 0 -9.16994,-9.126126 L 57.657691,20.8785 a 9.2140718,9.2140718 134.86279 0 0 -9.169941,9.213966 z"
       id="path16-7-1-6"
       transform="matrix(1.2793353,0,0,1.2797565,-33.431789,67.597003)"
       inkscape:original-d="m 48.48775,20.92242 v 92.503 h 58.52907 9.28799 l 7.32356,12.68478 7.38531,-12.79173 h 29.96193 V 78.653909 20.383648 Z"
       inkscape:path-effect="#path-effect16-9-9-2" /><path
       style="fill:#21466a;fill-opacity:1;stroke:#21466a;stroke-width:0;stroke-linecap:butt;stroke-linejoin:miter;stroke-dasharray:none;stroke-opacity:1"
       d="m 175.54575,107.2645 11.97693,-11.976925 -1.03097,-1.030971 a 0.21418195,0.21418195 104.99999 0 1 0.096,-0.358333 l 5.18599,-1.38958 -1.34057,5.003098 a 0.2141828,0.2141828 164.9999 0 1 -0.35834,0.09602 l -1.03149,-1.031484 -12.11092,12.110929 c -0.14488,0.14488 -0.39293,0.15964 -0.55078,0.029 -0.28235,-0.2337 -0.70285,-0.59689 -0.93471,-0.86971 -0.12843,-0.15111 -0.046,-0.43715 0.0988,-0.58203 z"
       id="path21-8-8-6"
       sodipodi:nodetypes="cccccccc"
       inkscape:path-effect="#path-effect21-3-4-9"
       inkscape:original-d="m 175.28343,107.52682 12.23925,-12.239245 -1.29329,-1.293289 5.54432,-1.485595 -1.43659,5.361432 -1.29381,-1.293802 -12.37324,12.373249 c 0,0 -1.49089,-1.16633 -1.38664,-1.42275 z"
       transform="matrix(1.3200439,1.2981315,-1.2977035,1.3204796,69.589197,-233.74871)" /><rect
       style="fill:#21466a;fill-opacity:1;fill-rule:evenodd;stroke:#21466a;stroke-width:0;stroke-dasharray:none;stroke-opacity:1;paint-order:fill markers stroke"
       id="rect21-9-8-8"
       width="29.243248"
       height="1.1251106"
       x="157.84567"
       y="141.8959" /><rect
       style="fill:#21466a;fill-opacity:1;fill-rule:evenodd;stroke:#21466a;stroke-width:0;stroke-dasharray:none;stroke-opacity:1;paint-order:fill markers stroke"
       id="rect21-2-5-8-5"
       width="62.98526"
       height="0.75007361"
       x="49.658627"
       y="216.04897" /><rect
       style="fill:#21466a;fill-opacity:1;fill-rule:evenodd;stroke:#21466a;stroke-width:0;stroke-dasharray:none;stroke-opacity:1;paint-order:fill markers stroke"
       id="rect21-2-3-1-5-3"
       width="62.98526"
       height="0.75007361"
       x="34.126698"
       y="220.40152" /><rect
       style="fill:#21466a;fill-opacity:1;fill-rule:evenodd;stroke:#21466a;stroke-width:0;stroke-dasharray:none;stroke-opacity:1;paint-order:fill markers stroke"
       id="rect21-2-3-8-9-0-1"
       width="60.718025"
       height="0.75007361"
       x="81.45417"
       y="90.203796" /><path
       sodipodi:type="star"
       style="fill:#21466a;fill-opacity:1;fill-rule:evenodd;stroke:#21466a;stroke-width:0.0781527;stroke-dasharray:none;stroke-opacity:1;paint-order:fill markers stroke"
       id="path22-8-0-4"
       inkscape:flatsided="false"
       sodipodi:sides="4"
       sodipodi:cx="22.259077"
       sodipodi:cy="85.037659"
       sodipodi:r1="6.2252283"
       sodipodi:r2="3.194798"
       sodipodi:arg1="1.7220867"
       sodipodi:arg2="2.5074849"
       inkscape:rounded="0"
       inkscape:randomized="0"
       d="m 21.320849,91.191779 -1.635503,-4.261334 -3.580389,-2.831015 4.261333,-1.635503 2.831015,-3.580388 1.635503,4.261333 3.580389,2.831015 -4.261333,1.635503 z"
       transform="matrix(1.2793353,0,0,1.2797565,-12.291975,50.066536)" /><path
       sodipodi:type="star"
       style="fill:#cccccc;fill-opacity:1;fill-rule:evenodd;stroke:#21466a;stroke-width:0.0781527;stroke-dasharray:none;stroke-opacity:0.260713;paint-order:fill markers stroke"
       id="path23-7-2-0-6"
       inkscape:flatsided="false"
       sodipodi:sides="4"
       sodipodi:cx="154.34081"
       sodipodi:cy="36.332199"
       sodipodi:r1="4.2208724"
       sodipodi:r2="2.1661592"
       sodipodi:arg1="0.93632118"
       sodipodi:arg2="1.7217193"
       inkscape:rounded="0"
       inkscape:randomized="0"
       d="m 156.84275,39.731618 -2.82763,-1.257883 -3.07373,0.360407 1.25788,-2.827626 -0.36041,-3.073735 2.82763,1.257882 3.07373,-0.360407 -1.25788,2.827627 z"
       transform="matrix(1.2793353,0,0,1.2797565,-27.041227,42.27804)" /><path
       sodipodi:type="star"
       style="fill:#21466a;fill-opacity:1;fill-rule:evenodd;stroke:#21466a;stroke-width:0.0781527;stroke-dasharray:none;stroke-opacity:1;paint-order:fill markers stroke"
       id="path23-5-3-8"
       inkscape:flatsided="false"
       sodipodi:sides="4"
       sodipodi:cx="154.34081"
       sodipodi:cy="36.332199"
       sodipodi:r1="4.2208724"
       sodipodi:r2="2.1661592"
       sodipodi:arg1="0.93632118"
       sodipodi:arg2="1.7217193"
       inkscape:rounded="0"
       inkscape:randomized="0"
       d="m 156.84275,39.731618 -2.82763,-1.257883 -3.07373,0.360407 1.25788,-2.827626 -0.36041,-3.073735 2.82763,1.257882 3.07373,-0.360407 -1.25788,2.827627 z"
       transform="matrix(1.2793353,0,0,1.2797565,-25.054819,40.803426)" /><path
       sodipodi:type="star"
       style="fill:#21466a;fill-opacity:1;fill-rule:evenodd;stroke:#21466a;stroke-width:0.0781527;stroke-dasharray:none;stroke-opacity:1;paint-order:fill markers stroke"
       id="path24-3-3-3"
       inkscape:flatsided="false"
       sodipodi:sides="4"
       sodipodi:cx="142.45657"
       sodipodi:cy="140.95222"
       sodipodi:r1="4.0548406"
       sodipodi:r2="2.0809515"
       sodipodi:arg1="0.87273255"
       sodipodi:arg2="1.6581307"
       inkscape:rounded="0"
       inkscape:randomized="0"
       d="m 145.06276,144.05859 -2.78769,-1.03334 -2.92486,0.53317 1.03334,-2.7877 -0.53317,-2.92486 2.7877,1.03334 2.92486,-0.53317 -1.03335,2.7877 z"
       transform="matrix(1.2793353,0,0,1.2797565,-27.274905,41.601361)" /><text
       xml:space="preserve"
       style="font-size:12.639px;font-family:'Arial Rounded MT Bold';-inkscape-font-specification:'Arial Rounded MT Bold, Normal';fill:#f9f9f9;fill-opacity:1;fill-rule:evenodd;stroke:#21466a;stroke-width:0;stroke-dasharray:none;stroke-opacity:0.260713;paint-order:fill markers stroke"
       x="174.78769"
       y="125.67989"
       id="text24-8-1-3-5"
       transform="scale(0.99983425,1.0001658)"><tspan
         sodipodi:role="line"
         id="tspan24-7-8-5-4"
         style="fill:#f9f9f9;fill-opacity:1;stroke-width:0;stroke-dasharray:none"
         x="174.78769"
         y="125.67989">04</tspan></text><text
       xml:space="preserve"
       style="font-size:12.639px;font-family:'Arial Rounded MT Bold';-inkscape-font-specification:'Arial Rounded MT Bold, Normal';fill:#21466a;fill-opacity:1;fill-rule:evenodd;stroke:#21466a;stroke-width:0;stroke-dasharray:none;stroke-opacity:0.260713;paint-order:fill markers stroke"
       x="174.96661"
       y="124.70228"
       id="text24-1-6-1"
       transform="scale(0.99983425,1.0001658)"><tspan
         sodipodi:role="line"
         id="tspan24-3-8-2"
         style="fill:#21466a;fill-opacity:1;stroke-width:0;stroke-dasharray:none"
         x="174.96661"
         y="124.70228">04</tspan></text><rect
       style="fill:#bac2ca;fill-opacity:1;fill-rule:evenodd;stroke:#1f3c55;stroke-width:0;stroke-dasharray:none;stroke-opacity:1;paint-order:fill markers stroke"
       id="rect33-4"
       width="74.685951"
       height="90.580032"
       x="44.232704"
       y="110.31639"
       ry="4.3781776"
       rx="0" /><rect
       style="fill:#f9f9f9;fill-opacity:1;fill-rule:evenodd;stroke:#1f3c55;stroke-width:0.899994;stroke-dasharray:none;stroke-opacity:1;paint-order:fill markers stroke"
       id="rect33"
       width="74.685951"
       height="90.580032"
       x="47.877422"
       y="106.50741"
       ry="4.3781776"
       rx="0" /><path
       id="rect34"
       style="fill:#204669;fill-opacity:1;fill-rule:evenodd;stroke:#3361b7;stroke-width:0;stroke-opacity:0.351967;paint-order:fill markers stroke"
       d="M 30.377854,65.170937 H 174.75128 a 9.263705,9.263705 45 0 1 9.26371,9.263705 V 87.628403 H 22.04052 V 73.508271 a 8.3373336,8.3373336 135 0 1 8.337334,-8.337334 z"
       inkscape:path-effect="#path-effect35"
       inkscape:original-d="M 22.04052,65.170937 H 184.01499 V 87.628403 H 22.04052 Z"
       transform="matrix(0.46156473,0,0,0.49200391,37.662458,74.18871)" /><g
       id="g38"
       transform="matrix(0.45997035,0,0,0.45951149,38.215203,76.795817)"
       style="stroke-width:2.17512"><circle
         style="fill:#ffc510;fill-opacity:1;fill-rule:evenodd;stroke:#d5e6f4;stroke-width:0;stroke-dasharray:none;stroke-opacity:1;paint-order:fill markers stroke"
         id="path35"
         cx="37.953712"
         cy="76.58812"
         r="5.6782565" /><circle
         style="fill:#ffc510;fill-opacity:1;fill-rule:evenodd;stroke:#d5e6f4;stroke-width:0;stroke-dasharray:none;stroke-opacity:1;paint-order:fill markers stroke"
         id="path35-6"
         cx="52.685059"
         cy="76.560219"
         r="5.6782565" /><circle
         style="fill:#d5e6f4;fill-opacity:1;fill-rule:evenodd;stroke:#d5e6f4;stroke-width:0;stroke-dasharray:none;stroke-opacity:1;paint-order:fill markers stroke"
         id="path35-6-2-6-8"
         cx="67.229797"
         cy="76.768143"
         r="5.6782565" /></g><path
       id="rect35"
       style="fill:#f9f9f9;fill-opacity:1;fill-rule:evenodd;stroke:#1f3c55;stroke-width:0.870066;stroke-dasharray:none;stroke-opacity:1;paint-order:fill markers stroke"
       d="m 35.994495,105.48941 v 138.3771 a 7.8287133,7.8287133 45 0 0 7.828713,7.82871 H 162.35036 a 7.8287133,7.8287133 135 0 0 7.82871,-7.82871 l 0,-134.06857 -8.15144,-6.766 -6.53139,-5.371247 H 43.823208 a 7.8287133,7.8287133 135 0 0 -7.828713,7.828717 z"
       inkscape:path-effect="#path-effect38"
       inkscape:original-d="M 35.994495,97.660693 V 251.69522 H 170.17907 V 109.79794 l -8.15144,-6.766 -6.53139,-5.371247 z"
       transform="matrix(0.45997035,0,0,0.45951149,35.58306,74.455085)" /><path
       style="fill:#2b4760;fill-opacity:0.30621;stroke:#1f3c55;stroke-width:0;stroke-linecap:butt;stroke-linejoin:miter;stroke-dasharray:none;stroke-opacity:1"
       d="m 113.59962,197.79864 -2.8627,-10.36574 8.42431,6.62468 -2.12248,1.36069 2.07729,3.13269 -1.37809,0.81588 -2.01332,-2.95159 z"
       id="path40-9" /><rect
       style="fill:#1f3c55;fill-opacity:1;fill-rule:evenodd;stroke:#d5e6f4;stroke-width:0;stroke-dasharray:none;stroke-opacity:1;paint-order:fill markers stroke"
       id="rect39-0-3-3-5"
       width="50.805454"
       height="1.9452653"
       x="58.780975"
       y="170.41231" /><rect
       style="fill:#1f3c55;fill-opacity:1;fill-rule:evenodd;stroke:#d5e6f4;stroke-width:0;stroke-dasharray:none;stroke-opacity:1;paint-order:fill markers stroke"
       id="rect39-0-3-3-5-1"
       width="16.729309"
       height="1.9452653"
       x="58.629742"
       y="174.11926" /><g
       id="g36"
       style="fill:#cccccc;stroke-width:2.17512"
       transform="matrix(0.45997035,0,0,0.45951149,35.747565,74.701463)"><path
         id="path36-9"
         style="fill:#cccccc;fill-rule:evenodd;stroke:#1f3c55;stroke-width:0.870066;stroke-dasharray:none;stroke-opacity:1;paint-order:fill markers stroke"
         inkscape:transform-center-x="-1.8024608"
         inkscape:transform-center-y="-0.8362911"
         d="m 155.58693,109.75686 14.59208,0.0419 -9e-4,2.8e-4 -7.35187,-6.11152 -7.32977,-6.026638 0.0127,7.257988 z"
         sodipodi:nodetypes="ccccccc" /></g><g
       id="g39"
       transform="matrix(0.45997035,0,0,0.45951149,37.941035,76.549418)"
       style="stroke-width:2.17512"><rect
         style="fill:#1f3c55;fill-opacity:1;fill-rule:evenodd;stroke:#d5e6f4;stroke-width:0;stroke-dasharray:none;stroke-opacity:1;paint-order:fill markers stroke"
         id="rect38"
         width="36.735413"
         height="33.675961"
         x="45.260517"
         y="112.5773"
         ry="1.8158605" /><path
         style="fill:#ffc510;fill-opacity:1;stroke-width:0.789593"
         d="m 47.813152,131.69864 17.496238,-13.90453 0.167954,14.16952 4.720847,-3.46815 -2.172848,0.098 -0.0864,-3.67963 12.476603,0.0598 -18.311448,13.94693 -0.110558,-14.11563 -4.599647,3.54258 2.105856,-0.0368 0.0565,3.35565 z"
         id="path7-9" /></g><rect
       style="fill:#1f3c55;fill-opacity:1;fill-rule:evenodd;stroke:#d5e6f4;stroke-width:0;stroke-dasharray:none;stroke-opacity:1;paint-order:fill markers stroke"
       id="rect39"
       width="22.879692"
       height="1.9452653"
       x="79.025055"
       y="138.68726" /><rect
       style="fill:#1f3c55;fill-opacity:1;fill-rule:evenodd;stroke:#d5e6f4;stroke-width:0;stroke-dasharray:none;stroke-opacity:1;paint-order:fill markers stroke"
       id="rect39-0"
       width="30.66852"
       height="1.9452653"
       x="78.976723"
       y="141.6479" /><rect
       style="fill:#1f3c55;fill-opacity:1;fill-rule:evenodd;stroke:#d5e6f4;stroke-width:0;stroke-dasharray:none;stroke-opacity:1;paint-order:fill markers stroke"
       id="rect39-0-3"
       width="41.339371"
       height="1.9452653"
       x="58.843391"
       y="149.29419" /><rect
       style="fill:#1f3c55;fill-opacity:1;fill-rule:evenodd;stroke:#d5e6f4;stroke-width:0;stroke-dasharray:none;stroke-opacity:1;paint-order:fill markers stroke"
       id="rect39-0-3-3"
       width="50.805454"
       height="1.9452653"
       x="58.888088"
       y="153.01993" /><rect
       style="fill:#1f3c55;fill-opacity:1;fill-rule:evenodd;stroke:#d5e6f4;stroke-width:0;stroke-dasharray:none;stroke-opacity:1;paint-order:fill markers stroke"
       id="rect39-0-3-3-7"
       width="28.086864"
       height="1.9452653"
       x="58.94445"
       y="159.49818" /><rect
       style="fill:#1f3c55;fill-opacity:1;fill-rule:evenodd;stroke:#d5e6f4;stroke-width:0;stroke-dasharray:none;stroke-opacity:1;paint-order:fill markers stroke"
       id="rect39-0-3-3-6"
       width="37.89716"
       height="1.9452653"
       x="58.822735"
       y="163.38869" /><path
       style="fill:none;fill-opacity:1;fill-rule:evenodd;stroke:#000000;stroke-width:0.800004;stroke-dasharray:none;stroke-opacity:1;paint-order:fill markers stroke"
       d="m 62.46722,182.86609 c 0.626097,0.32866 -0.32036,4.52944 -1.340923,3.33351 -1.476304,-1.73 2.630472,-1.89275 3.285275,-2.66008 0.53578,-0.62784 -0.224194,-1.95406 -0.603429,-2.52538 -0.09485,-0.14313 -0.17445,0.29394 -0.268172,0.43774 -0.320444,0.49227 -1.096338,0.84518 -1.072751,1.41421 0.02904,0.70415 0.818994,1.20474 1.206837,1.8183 0.25969,0.41082 0.381115,1.14482 0.402278,1.14482 0.19973,0 1.108915,-1.8391 1.27386,-2.08765 0.123055,-0.18534 0.175076,-0.73334 0.335235,-0.57238 0.225866,0.22701 -0.02382,2.59268 0.06706,2.59268 0.108431,0 0.194715,-0.42133 0.201192,-0.43771 0.352806,-0.88589 1.332232,-2.30691 2.547738,-2.25602 1.176606,0.0493 -0.05871,2.81367 -1.340922,2.49169 -0.192835,-0.0482 0.305172,-0.23367 0.469342,-0.3367 0.640701,-0.40222 1.299034,-0.7824 1.944331,-1.17853 0.261633,-0.16048 0.588428,-0.39651 0.871601,-0.53872 0.04032,-0.0213 0.15293,-0.0714 0.134127,-0.0337 -0.215398,0.4327 -0.855325,0.68078 -1.072729,1.14487 -0.314908,0.67208 3.200347,-0.16487 3.285253,-0.16842 1.039449,-0.0435 -1.549719,1.53479 -1.07275,1.48157 1.306241,-0.14564 2.562906,-1.4142 3.82166,-1.4142 1.180972,0 -1.273901,0.2956 -1.273901,0.60609 0,0.061 0.401151,-0.084 0.469343,-0.10134"
       id="path39" /><g
       id="g2-3"
       transform="matrix(0.20879161,0,0,0.20858332,96.78812,176.34239)"
       style="stroke-width:4.7919"><g
         id="g6-8"
         transform="translate(7.301163,-217.25959)"
         style="fill:#000000;stroke-width:4.7919"><path
           id="rect4"
           style="fill:#000000;fill-opacity:1;stroke-width:2.39595;stroke-dasharray:none;paint-order:fill markers stroke"
           d="m 7.0765706,233.71545 v 9.54412 h 9.5446374 v -9.54412 z m 1.5916342,1.80247 h 6.2523312 v 5.62705 H 8.6682048 Z" /><path
           id="rect6"
           style="stroke-width:2.39595;paint-order:fill markers stroke"
           d="m 10.090468,236.90717 h 3.275215 v 2.77897 h -3.275215 z" /></g><g
         id="g6-5"
         transform="translate(7.24431,-190.56246)"
         style="fill:#000000;stroke-width:4.7919"><path
           id="rect4-3"
           style="fill:#000000;fill-opacity:1;stroke-width:2.39595;stroke-dasharray:none;paint-order:fill markers stroke"
           d="m 7.0765706,233.71545 v 9.54412 h 9.5446374 v -9.54412 z m 1.5916342,1.80247 h 6.2523312 v 5.62705 H 8.6682048 Z" /><path
           id="rect6-5"
           style="stroke-width:2.39595;paint-order:fill markers stroke"
           d="m 10.090468,236.90717 h 3.275215 v 2.77897 h -3.275215 z" /></g><g
         id="g6-2"
         transform="translate(39.112714,-217.23484)"
         style="fill:#000000;stroke-width:4.7919"><path
           id="rect4-38"
           style="fill:#000000;fill-opacity:1;stroke-width:2.39595;stroke-dasharray:none;paint-order:fill markers stroke"
           d="m 7.0765706,233.71545 v 9.54412 h 9.5446374 v -9.54412 z m 1.5916342,1.80247 h 6.2523312 v 5.62705 H 8.6682048 Z" /><path
           id="rect6-3"
           style="stroke-width:2.39595;paint-order:fill markers stroke"
           d="m 10.090468,236.90717 h 3.275215 v 2.77897 h -3.275215 z" /></g><path
         id="path1-5"
         style="fill:#000000;stroke-width:2.39595;-inkscape-stroke:none;paint-order:fill markers stroke"
         d="m 25.61529,17.124036 v 2.9068 h 1.508952 V 26.58134 H 25.61529 v 1.701188 h 2.245858 v 1.684135 h 4.140833 v -0.904337 h -3.48816 v -2.745052 h -0.792716 v -5.754688 h 0.841809 v 4.133081 h 4.416785 v 3.165698 h 0.49661 V 25.191761 H 35.44053 V 25.054302 H 35.019367 V 24.071416 H 35.44053 V 23.43993 h -3.859712 v -1.333252 h 3.859712 v -4.982642 h -3.649389 v 1.616439 h 2.478918 v 2.381767 h -3.076815 v -1.784904 h -1.507401 v -2.213302 z m 12.702584,0 v 6.94738 h 2.667021 v 0.982886 h -2.667021 v 4.912361 h 0.772046 v -1.894975 h 2.822567 v -3.47524 h 1.809192 v -3.121256 h -3.50883 v -2.596741 h 3.50883 v -1.754415 z m 6.947896,11.439095 v 0.499195 h 5.380551 v 0.904337 h 0.7953 v -1.403532 z m -29.475203,0.701766 v 0.701766 h 5.192965 v -0.701766 z m 5.543848,0 v 0.701766 h 3.298506 v -0.701766 z m -5.543848,1.262972 v 1.404049 h 1.754415 v 2.526461 h -1.754415 v 1.052649 h 5.192965 v -4.983159 z m 5.543848,0 v 4.983159 h 1.820044 V 32.93289 h 7.30343 v -0.369486 h 1.122929 v -2.035535 h -3.71967 v 0.702283 h -3.228227 v -0.702283 z m 16.983459,0 v 1.512053 h 3.892269 v 2.62878 h 6.705017 v 4.280875 h -6.947896 v -3.435966 h -3.64939 V 39.37074 H 35.44053 v -3.859712 h -1.122929 v -2.947624 h 1.122929 v -1.965255 h -2.736783 v 2.334741 h 0.08578 v 3.176034 h 1.48053 v 7.741646 h -1.566312 v 1.345138 h 1.544091 v 2.877344 H 32.08673 v 2.724898 h -0.893486 v -2.724898 h -2.138887 v 3.438549 h 6.807336 v -6.668843 h -0.996321 v -4.26744 h 2.977596 v 4.26744 h -1.419552 v 0.42323 h 4.893241 v -2.01073 h 6.252849 v 6.252331 h -3.426664 v 2.004012 h 7.298779 v -3.017387 h -1.688786 v 2.105298 h -1.488798 v -2.105298 h -0.471806 v -1.544091 h 0.471806 v -4.702039 h -8.191748 v -2.385901 h 11.369332 v -3.929992 h -1.122929 v -1.544092 h 1.122929 v -3.86023 h -0.7953 v 1.313615 h -7.44399 v -1.313615 z m 4.772319,1.473812 h 1.052649 v 2.035535 h -1.052649 z m -4.210596,4.632276 h 0.421163 v 3.228226 h -0.421163 z m -23.08903,0.280603 v 5.052921 h 5.192965 V 36.91456 Z m 5.543848,0 v 5.052921 h 2.947623 V 39.44102 h 2.526461 v 2.526461 h 0.912606 v -1.403532 h 2.315621 v 3.157947 h -0.982369 v 1.473812 h 2.526461 V 38.888082 H 23.154459 V 36.91456 Z m -3.789433,1.613855 h 2.526461 v 2.877343 h -2.526461 z m 32.207853,3.719669 v 4.702039 h 1.688786 V 42.248084 Z M 36.423416,46.66952 v 4.842081 H 39.1602 v -1.192692 h 2.596741 v 1.192692 h 1.403532 V 49.507589 H 41.316657 V 46.66952 Z" /><rect
         style="fill:#000000;stroke-width:2.39595;-inkscape-stroke:none;paint-order:fill markers stroke"
         id="rect2-88"
         width="1.4737712"
         height="2.3159263"
         x="24.983931"
         y="46.458885" /><rect
         style="fill:#000000;stroke-width:2.39595;-inkscape-stroke:none;paint-order:fill markers stroke"
         id="rect2-0"
         width="1.4737712"
         height="2.3159263"
         x="36.33815"
         y="28.891275" /><rect
         style="fill:#000000;stroke-width:2.39595;-inkscape-stroke:none;paint-order:fill markers stroke"
         id="rect2-3"
         width="1.4737712"
         height="2.3159263"
         x="36.33815"
         y="18.572525" /><rect
         style="fill:#000000;stroke-width:2.39595;-inkscape-stroke:none;paint-order:fill markers stroke"
         id="rect2-38"
         width="1.4737712"
         height="2.3159263"
         x="44.540234"
         y="24.922525" /><rect
         style="fill:#000000;stroke-width:2.39595;-inkscape-stroke:none;paint-order:fill markers stroke"
         id="rect2-6"
         width="1.4737712"
         height="2.3159263"
         x="45.069401"
         y="35.505859" /><rect
         style="fill:#000000;stroke-width:2.39595;-inkscape-stroke:none;paint-order:fill markers stroke"
         id="rect2-6-4"
         width="1.4737712"
         height="2.3159263"
         x="52.742317"
         y="38.151695" /><rect
         style="fill:#000000;stroke-width:2.39595;-inkscape-stroke:none;paint-order:fill markers stroke"
         id="rect2-66"
         width="1.4737712"
         height="2.3159263"
         x="43.481899"
         y="40.26836" /><rect
         style="fill:#000000;stroke-width:2.39595;-inkscape-stroke:none;paint-order:fill markers stroke"
         id="rect2-5-07"
         width="1.4737712"
         height="2.3159263"
         x="25.75482"
         y="28.362108" /><rect
         style="fill:#000000;stroke-width:2.39595;-inkscape-stroke:none;paint-order:fill markers stroke"
         id="rect2-54"
         width="1.4737712"
         height="2.3159263"
         x="35.808983"
         y="35.505859" /><rect
         style="fill:#000000;stroke-width:2.39595;-inkscape-stroke:none;paint-order:fill markers stroke"
         id="rect2-59"
         width="1.4737712"
         height="2.3159263"
         x="26.548567"
         y="42.649609" /><rect
         style="fill:#000000;stroke-width:2.39595;-inkscape-stroke:none;paint-order:fill markers stroke"
         id="rect3"
         width="2.9774675"
         height="1.9849784"
         x="26.032431"
         y="35.315086" /><rect
         style="fill:#000000;stroke-width:2.39595;-inkscape-stroke:none;paint-order:fill markers stroke"
         id="rect2-7"
         width="1.4737712"
         height="2.3159263"
         x="37.925652"
         y="32.33086" /><rect
         style="fill:#000000;stroke-width:2.39595;-inkscape-stroke:none;paint-order:fill markers stroke"
         id="rect2-02"
         width="1.4737712"
         height="2.3159263"
         x="44.804817"
         y="45.030861" /><rect
         style="fill:#000000;stroke-width:2.39595;-inkscape-stroke:none;paint-order:fill markers stroke"
         id="rect2-8"
         width="1.4737712"
         height="2.3159263"
         x="41.365234"
         y="46.882942" /><rect
         style="fill:#000000;stroke-width:2.39595;-inkscape-stroke:none;paint-order:fill markers stroke"
         id="rect2-9"
         width="1.4737712"
         height="2.3159263"
         x="26.548567"
         y="49.528778" /><rect
         style="fill:#000000;stroke-width:2.39595;-inkscape-stroke:none;paint-order:fill markers stroke"
         id="rect2-2"
         width="1.4737712"
         height="2.3159263"
         x="30.252733"
         y="33.918358" /><rect
         style="fill:#000000;stroke-width:2.39595;-inkscape-stroke:none;paint-order:fill markers stroke"
         id="rect2-01"
         width="1.4737712"
         height="2.3159263"
         x="30.252733"
         y="23.864191" /><rect
         style="fill:#000000;stroke-width:2.39595;-inkscape-stroke:none;paint-order:fill markers stroke"
         id="rect2-4"
         width="1.4737712"
         height="2.3159263"
         x="21.256903"
         y="27.568357" /><rect
         style="fill:#000000;stroke-width:2.39595;-inkscape-stroke:none;paint-order:fill markers stroke"
         id="rect2-47"
         width="1.4737712"
         height="2.3159263"
         x="46.921482"
         y="28.362108" /><rect
         style="fill:#000000;stroke-width:2.39595;-inkscape-stroke:none;paint-order:fill markers stroke"
         id="rect2-25"
         width="1.4737712"
         height="2.3159263"
         x="47.97982"
         y="38.945442" /><rect
         style="fill:#000000;stroke-width:2.39595;-inkscape-stroke:none;paint-order:fill markers stroke"
         id="rect2-43"
         width="1.4737712"
         height="2.3159263"
         x="48.2444"
         y="43.443359" /><rect
         style="fill:#000000;stroke-width:2.39595;-inkscape-stroke:none;paint-order:fill markers stroke"
         id="rect2-258"
         width="1.4737712"
         height="2.3159263"
         x="33.427734"
         y="38.416275" /><rect
         style="fill:#000000;stroke-width:2.39595;-inkscape-stroke:none;paint-order:fill markers stroke"
         id="rect2-36"
         width="1.4737712"
         height="2.3159263"
         x="30.517317"
         y="40.532944" /><rect
         style="fill:#000000;stroke-width:2.39595;-inkscape-stroke:none;paint-order:fill markers stroke"
         id="rect2-61"
         width="1.4737712"
         height="2.3159263"
         x="23.638151"
         y="31.007942" /><rect
         style="fill:#000000;stroke-width:2.39595;-inkscape-stroke:none;paint-order:fill markers stroke"
         id="rect2-30"
         width="1.4737712"
         height="2.3159263"
         x="28.929819"
         y="31.537107" /><rect
         style="fill:#000000;stroke-width:2.39595;-inkscape-stroke:none;paint-order:fill markers stroke"
         id="rect2-48"
         width="1.4737712"
         height="2.3159263"
         x="41.629818"
         y="20.160027" /><rect
         style="fill:#000000;stroke-width:2.39595;-inkscape-stroke:none;paint-order:fill markers stroke"
         id="rect2-612"
         width="1.4737712"
         height="2.3159263"
         x="31.840235"
         y="16.985025" /><rect
         style="fill:#000000;stroke-width:2.39595;-inkscape-stroke:none;paint-order:fill markers stroke"
         id="rect2-24"
         width="1.4737712"
         height="2.3159263"
         x="34.750648"
         y="23.07044" /><rect
         style="fill:#000000;stroke-width:2.39595;-inkscape-stroke:none;paint-order:fill markers stroke"
         id="rect2-86"
         width="1.4737712"
         height="2.3159263"
         x="41.100651"
         y="26.774609" /><rect
         style="fill:#000000;stroke-width:2.39595;-inkscape-stroke:none;paint-order:fill markers stroke"
         id="rect2-00"
         width="1.4737712"
         height="8.0723639"
         x="52.874245"
         y="26.674877" /><rect
         style="fill:#000000;stroke-width:2.39595;-inkscape-stroke:none;paint-order:fill markers stroke"
         id="rect2-00-9"
         width="1.4737712"
         height="8.0723639"
         x="53.105904"
         y="43.579395" /><rect
         style="fill:#000000;stroke-width:2.39595;-inkscape-stroke:none;paint-order:fill markers stroke"
         id="rect2-383"
         width="1.4737712"
         height="2.3159263"
         x="22.050653"
         y="34.182941" /><rect
         style="fill:#000000;stroke-width:2.39595;-inkscape-stroke:none;paint-order:fill markers stroke"
         id="rect2-866"
         width="1.4737712"
         height="2.3159263"
         x="30.517317"
         y="44.23711" /><rect
         style="fill:#000000;stroke-width:2.39595;-inkscape-stroke:none;paint-order:fill markers stroke"
         id="rect2-70"
         width="1.4737712"
         height="2.3159263"
         x="32.898567"
         y="46.353775" /><rect
         style="fill:#000000;stroke-width:2.39595;-inkscape-stroke:none;paint-order:fill markers stroke"
         id="rect2-94"
         width="1.4737712"
         height="2.3159263"
         x="39.248566"
         y="43.707943" /><rect
         style="fill:#000000;stroke-width:2.39595;-inkscape-stroke:none;paint-order:fill markers stroke"
         id="rect2-49"
         width="4.2527409"
         height="2.3159263"
         x="28.929823"
         y="26.510025" /></g><path
       style="fill:#2b4760;fill-opacity:1;stroke:#1f3c55;stroke-width:0.264584px;stroke-linecap:butt;stroke-linejoin:miter;stroke-opacity:1"
       d="m 114.46103,197.12372 -2.86275,-10.36573 8.42431,6.62468 -2.12243,1.3607 2.07726,3.13268 -1.37809,0.81589 -2.01333,-2.95159 z"
       id="path40" /></g></svg>
