<?xml version="1.0" encoding="UTF-8" standalone="no"?>
<!-- Created with Inkscape (http://www.inkscape.org/) -->

<svg
   width="210mm"
   height="297mm"
   viewBox="0 0 210 297"
   version="1.1"
   id="svg1"
   inkscape:version="1.3 (0e150ed6c4, 2023-07-21)"
   sodipodi:docname="Legalitas Original.svg"
   xml:space="preserve"
   xmlns:inkscape="http://www.inkscape.org/namespaces/inkscape"
   xmlns:sodipodi="http://sodipodi.sourceforge.net/DTD/sodipodi-0.dtd"
   xmlns="http://www.w3.org/2000/svg"
   xmlns:svg="http://www.w3.org/2000/svg"><sodipodi:namedview
     id="namedview1"
     pagecolor="#ffffff"
     bordercolor="#000000"
     borderopacity="0.25"
     inkscape:showpageshadow="2"
     inkscape:pageopacity="0.0"
     inkscape:pagecheckerboard="0"
     inkscape:deskcolor="#d1d1d1"
     inkscape:document-units="mm"
     inkscape:zoom="0.32"
     inkscape:cx="1701.5625"
     inkscape:cy="585.9375"
     inkscape:window-width="1366"
     inkscape:window-height="705"
     inkscape:window-x="-8"
     inkscape:window-y="-8"
     inkscape:window-maximized="1"
     inkscape:current-layer="layer1" /><defs
     id="defs1" /><g
     inkscape:label="Layer 1"
     inkscape:groupmode="layer"
     id="layer1"><path
       style="fill:#bababa;fill-opacity:0.502126;fill-rule:evenodd;stroke:none;stroke-width:2.96514;stroke-dasharray:none;stroke-opacity:1;paint-order:fill markers stroke"
       id="path26"
       sodipodi:type="arc"
       sodipodi:cx="25.842529"
       sodipodi:cy="172.31462"
       sodipodi:rx="53.461979"
       sodipodi:ry="52.951286"
       sodipodi:start="0"
       sodipodi:end="3.1415927"
       sodipodi:arc-type="slice"
       d="m 79.304508,172.31462 a 53.461979,52.951286 0 0 1 -26.73099,45.85716 53.461979,52.951286 0 0 1 -53.46197959,0 A 53.461979,52.951286 0 0 1 -27.61945,172.31462 h 53.461979 z"
       transform="matrix(0.88172777,-0.47175857,0.48481118,0.87461884,0,0)" /><ellipse
       style="fill:none;fill-opacity:0.422658;fill-rule:evenodd;stroke:#ffc510;stroke-width:2.96499;stroke-dasharray:none;stroke-opacity:1;paint-order:fill markers stroke"
       id="path25"
       cx="107.26225"
       cy="138.95607"
       rx="53.293686"
       ry="53.293629" /><g
       id="g165"
       transform="matrix(1.0974504,0,0,1.0974579,46.83499,76.599059)"
       style="stroke-width:0.911203"><g
         id="g21"
         transform="matrix(0.61477936,0,0,0.61477451,-3.093139,-53.10832)"
         style="fill:#ffc510;fill-opacity:1;stroke-width:1.48216"><rect
           style="fill:#ffc510;fill-opacity:1;fill-rule:evenodd;stroke-width:0.837424;stroke-opacity:0.478804;paint-order:fill markers stroke"
           id="rect20"
           width="33.147907"
           height="1.3458978"
           x="120.55426"
           y="189.6821" /><path
           style="fill:#ffc510;fill-opacity:1;fill-rule:evenodd;stroke-width:0.837424;stroke-opacity:0.478804;paint-order:fill markers stroke"
           id="path20"
           sodipodi:type="arc"
           sodipodi:cx="137.18365"
           sodipodi:cy="191.82332"
           sodipodi:rx="16.562611"
           sodipodi:ry="7.6983037"
           sodipodi:start="0"
           sodipodi:end="3.1415927"
           sodipodi:arc-type="slice"
           d="m 153.74627,191.82332 a 16.562611,7.6983037 0 0 1 -8.28131,6.66693 16.562611,7.6983037 0 0 1 -16.56261,-1e-5 16.562611,7.6983037 0 0 1 -8.28131,-6.66692 h 16.56261 z" /></g><g
         id="g19"
         transform="matrix(0.61477936,0,0,0.61477451,-53.467316,-53.057363)"
         style="fill:#ffc510;fill-opacity:1;stroke-width:1.48216"><rect
           style="fill:#ffc510;fill-opacity:1;fill-rule:evenodd;stroke-width:0.837424;stroke-opacity:0.478804;paint-order:fill markers stroke"
           id="rect14"
           width="33.147907"
           height="1.3458978"
           x="120.55426"
           y="189.6821" /><path
           style="fill:#ffc510;fill-opacity:1;fill-rule:evenodd;stroke-width:0.837424;stroke-opacity:0.478804;paint-order:fill markers stroke"
           id="path1"
           sodipodi:type="arc"
           sodipodi:cx="137.18365"
           sodipodi:cy="191.82332"
           sodipodi:rx="16.562611"
           sodipodi:ry="7.6983037"
           sodipodi:start="0"
           sodipodi:end="3.1415927"
           sodipodi:arc-type="slice"
           d="m 153.74627,191.82332 a 16.562611,7.6983037 0 0 1 -8.28131,6.66693 16.562611,7.6983037 0 0 1 -16.56261,-1e-5 16.562611,7.6983037 0 0 1 -8.28131,-6.66692 h 16.56261 z" /></g></g><g
       id="g22"
       transform="matrix(0.6746899,0,0,0.66607541,44.284439,19.626659)"
       style="fill:#000080;fill-opacity:1;stroke-width:1.49171"><path
         id="path21"
         style="fill:#000080;fill-opacity:1;fill-rule:evenodd;stroke-width:0.842817;stroke-opacity:0.478804;paint-order:fill markers stroke"
         d="m 139.58285,156.95446 9.50738,32.48662 1.91325,-0.0783 -9.50737,-32.48662 z" /><path
         id="path22"
         style="fill:#000080;fill-opacity:1;fill-rule:evenodd;stroke-width:0.842817;stroke-opacity:0.478804;paint-order:fill markers stroke"
         d="m 121.45355,189.34175 9.34637,-32.32441 1.91659,0.0676 -9.34635,32.32443 z" /><path
         id="path17"
         style="fill:#000080;fill-opacity:1;fill-rule:evenodd;stroke-width:0.842817;stroke-opacity:0.478804;paint-order:fill markers stroke"
         d="m 57.644222,157.03735 9.50738,32.48662 1.91325,-0.0783 -9.50737,-32.48662 z" /><path
         id="path17-7"
         style="fill:#000080;fill-opacity:1;fill-rule:evenodd;stroke-width:0.842817;stroke-opacity:0.478804;paint-order:fill markers stroke"
         d="m 39.514922,189.42464 9.34637,-32.32441 1.91659,0.0676 -9.34635,32.32443 z" /></g><g
       id="g24"
       transform="matrix(0.96936233,0,0,0.96936125,33.442899,-25.510953)"
       style="stroke-width:1.03161"><rect
         style="fill:#000080;fill-opacity:1;fill-rule:evenodd;stroke-width:0.582857;stroke-opacity:0.478804;paint-order:fill markers stroke"
         id="rect3"
         width="3.1809795"
         height="31.567854"
         x="69.193832"
         y="165.65681" /><rect
         style="fill:#000080;fill-opacity:1;fill-rule:evenodd;stroke-width:0.582857;stroke-opacity:0.478804;paint-order:fill markers stroke"
         id="rect4"
         width="3.1809795"
         height="31.567854"
         x="74.85334"
         y="165.65681" /><rect
         style="fill:#000080;fill-opacity:0.998372;fill-rule:evenodd;stroke-width:0.582857;stroke-opacity:0.478804;paint-order:fill markers stroke"
         id="rect6"
         width="3.1809795"
         height="24.664284"
         x="162.45041"
         y="-88.842384"
         transform="rotate(90)" /><rect
         style="fill:#000080;fill-opacity:1;fill-rule:evenodd;stroke-width:0.582857;stroke-opacity:0.478804;paint-order:fill markers stroke"
         id="rect5"
         width="3.19524"
         height="24.774857"
         x="157.73888"
         y="-88.781395"
         transform="rotate(90)" /><rect
         style="fill:#000080;fill-opacity:1;fill-rule:evenodd;stroke-width:0.582857;stroke-opacity:0.478804;paint-order:fill markers stroke"
         id="rect4-0"
         width="3.1809795"
         height="33.745468"
         x="198.36174"
         y="-93.680183"
         transform="rotate(90)" /><rect
         style="fill:#000080;fill-opacity:1;fill-rule:evenodd;stroke-width:0.582857;stroke-opacity:0.478804;paint-order:fill markers stroke"
         id="rect2"
         width="3.1809795"
         height="31.567854"
         x="80.440292"
         y="165.65681" /></g><g
       id="g23"
       transform="matrix(0.96936233,0,0,0.96936125,33.442899,-25.510953)"
       style="stroke-width:1.03161"><path
         id="path12"
         style="fill:#000080;fill-opacity:0.994053;fill-rule:evenodd;stroke-width:0.582859;stroke-opacity:0.478804;paint-order:fill markers stroke"
         d="m 79.483774,154.00392 h 38.721676 v -3.18098 H 81.325211 L 79.876,153.36297 Z" /><path
         id="path10"
         style="fill:#000080;fill-opacity:1;fill-rule:evenodd;stroke-width:0.582859;stroke-opacity:0.478804;paint-order:fill markers stroke"
         d="M 71.709678,150.63629 H 36.054721 v 3.18097 h 37.496391 l -0.392594,-0.6413 z" /></g><path
       id="path9-5"
       style="fill:#ffc510;fill-opacity:1;fill-rule:evenodd;stroke-width:0.564996;stroke-opacity:0.478804;paint-order:fill markers stroke"
       inkscape:transform-center-y="1.9321924"
       d="m 107.80167,114.66483 -6.85374,0.1045 3.33623,6.00615 3.51751,5.90159 3.517,-5.9011 3.33624,-6.00664 z m -0.035,1.8138 3.68296,0.0589 -1.79284,3.39073 -1.89012,3.3318 -1.89061,-3.3318 -1.79284,-3.39073 z"
       inkscape:transform-center-x="4.8700337e-06" /><g
       id="g27"
       transform="matrix(1.0973636,0,0,1.0973624,23.624075,-44.558683)"
       style="stroke-width:0.911274"><path
         sodipodi:type="star"
         style="fill:#000080;fill-opacity:1;fill-rule:evenodd;stroke:none;stroke-width:2.11869;stroke-dasharray:none;stroke-opacity:1;paint-order:fill markers stroke"
         id="path27"
         inkscape:flatsided="false"
         sodipodi:sides="4"
         sodipodi:cx="71.485069"
         sodipodi:cy="128.196"
         sodipodi:r1="5.1527452"
         sodipodi:r2="2.6443992"
         sodipodi:arg1="0.52359878"
         sodipodi:arg2="1.3089969"
         inkscape:rounded="0"
         inkscape:randomized="0"
         d="m 75.947478,130.77237 -3.777988,-0.0221 -3.260793,1.90812 0.02208,-3.77799 -1.908115,-3.26079 3.777987,0.0221 3.260794,-1.90812 -0.02208,3.77799 z"
         inkscape:transform-center-y="-2.2159568e-06"
         transform="matrix(1.2752832,0,0,1.2752832,-59.582734,25.534691)" /><path
         sodipodi:type="star"
         style="fill:#000080;fill-opacity:1;fill-rule:evenodd;stroke:none;stroke-width:1.51276;stroke-dasharray:none;stroke-opacity:1;paint-order:fill markers stroke"
         id="path27-6"
         inkscape:flatsided="false"
         sodipodi:sides="4"
         sodipodi:cx="71.485069"
         sodipodi:cy="128.196"
         sodipodi:r1="5.1527452"
         sodipodi:r2="2.6443992"
         sodipodi:arg1="0.52359878"
         sodipodi:arg2="1.3089969"
         inkscape:rounded="0"
         inkscape:randomized="0"
         d="m 75.947478,130.77237 -3.777988,-0.0221 -3.260793,1.90812 0.02208,-3.77799 -1.908115,-3.26079 3.777987,0.0221 3.260794,-1.90812 -0.02208,3.77799 z"
         inkscape:transform-center-y="-1.5206199e-06"
         transform="matrix(1.7860881,0,0,1.7860881,-18.342687,-99.636482)" /></g></g></svg>
